<svg width="426" height="803" viewBox="0 0 426 803" fill="none" xmlns="http://www.w3.org/2000/svg">
<g clip-path="url(#clip0_101_2)">
<path d="M410.453 0H15.5474C6.96083 0 0 6.3295 0 14.1373V788.863C0 796.671 6.96083 803 15.5474 803H410.453C419.039 803 426 796.671 426 788.863V14.1373C426 6.3295 419.039 0 410.453 0Z" fill="#483EFF"/>
<mask id="mask0_101_2" style="mask-type:alpha" maskUnits="userSpaceOnUse" x="0" y="0" width="426" height="803">
<path d="M410.453 0H15.5474C6.96083 0 0 6.3295 0 14.1373V788.863C0 796.671 6.96083 803 15.5474 803H410.453C419.039 803 426 796.671 426 788.863V14.1373C426 6.3295 419.039 0 410.453 0Z" fill="white"/>
</mask>
<g mask="url(#mask0_101_2)">
<path fill-rule="evenodd" clip-rule="evenodd" d="M-53.9372 767.799C5.04825 894.239 262.39 968.431 329.544 865.939C396.699 763.448 226.777 744.849 166.707 638.938C106.64 533.027 59.9634 466.923 -26.8302 491.051C-113.622 515.181 -112.923 641.359 -53.9372 767.799Z" fill="#6259FF"/>
<path fill-rule="evenodd" clip-rule="evenodd" d="M362.403 849.869C456.744 809.892 506.744 646.962 427.508 607.375C348.271 567.786 338.27 674.639 259.504 714.8C180.738 754.961 131.797 785.779 152.158 839.549C172.519 893.319 268.063 889.847 362.403 849.869Z" fill="#F9818E"/>
<path d="M257.007 663.178L273.498 647.901M325.658 670.931L306.215 656.082M291.608 691.302L280.868 712.223" stroke="white" stroke-width="5" stroke-linecap="round" stroke-linejoin="bevel"/>
<path d="M0.474224 773.157C58.0044 773.157 104.642 730.75 104.642 678.437C104.642 626.125 58.0044 583.717 0.474224 583.717C-57.056 583.717 -103.694 626.125 -103.694 678.437C-103.694 730.75 -57.056 773.157 0.474224 773.157Z" fill="#FFAF7E"/>
</g>
</g>
<defs>
<clipPath id="clip0_101_2">
<rect width="426" height="803" fill="white"/>
</clipPath>
</defs>
</svg>
